<?xml version="1.0" standalone="no"?>
<!DOCTYPE svg PUBLIC "-//W3C//DTD SVG 20010904//EN"
 "http://www.w3.org/TR/2001/REC-SVG-20010904/DTD/svg10.dtd">
<svg version="1.0" xmlns="http://www.w3.org/2000/svg"
 width="512.000000pt" height="512.000000pt" viewBox="0 0 512.000000 512.000000"
 preserveAspectRatio="xMidYMid meet">

<g transform="translate(0.000000,512.000000) scale(0.100000,-0.100000)"
fill="#000000" stroke="none">
<path d="M2265 4704 c-33 -8 -98 -33 -145 -56 -68 -33 -101 -57 -170 -127
-143 -144 -208 -309 -197 -506 14 -282 188 -514 456 -609 78 -27 98 -30 211
-31 111 0 135 3 213 29 205 67 367 227 434 430 24 71 27 97 28 211 0 144 -16
211 -78 330 -46 87 -183 221 -274 268 -141 73 -329 97 -478 61z"/>
<path d="M775 4468 c-88 -16 -210 -83 -278 -151 -218 -218 -220 -562 -7 -778
36 -36 90 -80 121 -97 71 -40 193 -72 274 -72 81 0 203 32 274 72 82 46 179
149 219 232 81 167 81 327 1 494 -108 224 -356 347 -604 300z"/>
<path d="M598 3226 c-101 -36 -166 -95 -216 -196 l-27 -55 0 -510 0 -510 27
-55 c39 -80 88 -132 160 -171 l63 -34 995 0 995 0 63 34 c75 41 125 94 161
170 l26 56 0 510 0 510 -33 67 c-36 74 -95 132 -170 170 l-47 23 -980 2 c-789
2 -987 0 -1017 -11z"/>
<path d="M3362 2979 l-382 -262 0 -188 0 -188 382 -325 c209 -179 387 -326
395 -326 11 0 13 134 13 775 0 640 -2 775 -13 775 -8 0 -185 -118 -395 -261z"/>
<path d="M4924 2876 c-18 -13 -19 -32 -24 -303 -5 -273 -6 -290 -27 -329 -44
-83 -110 -117 -253 -131 -118 -11 -191 -43 -260 -113 -155 -154 -156 -433 -2
-587 68 -68 151 -103 265 -113 51 -4 108 -14 127 -22 166 -70 202 -302 64
-416 -68 -56 -106 -62 -414 -62 l-277 0 -24 38 c-31 48 -98 82 -160 82 -38 0
-49 4 -54 19 -3 11 -13 22 -21 25 -9 3 -242 20 -517 36 -276 17 -648 39 -827
50 -179 11 -337 20 -352 20 l-28 0 0 104 c0 144 18 136 -290 136 -288 0 -290
0 -290 -81 0 -27 -2 -49 -5 -49 -2 0 -33 16 -67 35 -285 156 -649 17 -760
-292 -26 -73 -35 -214 -18 -292 28 -131 109 -251 218 -325 90 -62 166 -87 277
-93 107 -6 183 10 277 59 35 18 66 34 71 36 4 2 7 -19 7 -46 0 -83 -3 -82 287
-82 310 0 292 -8 295 135 l3 100 845 41 c465 23 855 44 867 48 12 4 26 20 31
35 9 26 15 29 70 33 67 5 120 37 147 89 l16 29 297 0 c332 0 362 4 445 63 93
66 157 186 157 296 0 67 -33 167 -73 218 -72 94 -158 136 -297 146 -186 14
-290 121 -290 298 0 165 124 289 288 289 150 0 276 80 339 215 l28 60 3 287
c3 278 3 287 -17 307 -25 25 -50 27 -77 7z m-2904 -2131 l0 -445 -169 0 -168
0 -6 83 c-4 45 -7 245 -7 445 l0 362 175 0 175 0 0 -445z m-850 -1 l0 -416
-32 7 c-108 23 -232 124 -281 226 -110 234 1 496 248 581 27 10 53 17 58 18 4
0 7 -187 7 -416z m2822 39 c10 -9 18 -26 18 -39 0 -35 -26 -54 -76 -54 l-44 0
0 55 0 55 42 0 c24 0 49 -7 60 -17z"/>
</g>
</svg>
