<?xml version="1.0" encoding="UTF-8" standalone="no"?>
<!-- Created with Inkscape (http://www.inkscape.org/) -->
<svg
   xmlns:dc="http://purl.org/dc/elements/1.1/"
   xmlns:cc="http://web.resource.org/cc/"
   xmlns:rdf="http://www.w3.org/1999/02/22-rdf-syntax-ns#"
   xmlns:svg="http://www.w3.org/2000/svg"
   xmlns="http://www.w3.org/2000/svg"
   xmlns:sodipodi="http://sodipodi.sourceforge.net/DTD/sodipodi-0.dtd"
   xmlns:inkscape="http://www.inkscape.org/namespaces/inkscape"
   id="svg2"
   sodipodi:version="0.32"
   inkscape:version="0.45"
   width="306.40134"
   height="402.72293"
   version="1.0"
   sodipodi:docbase="C:\Dokumente und Einstellungen\Dieter\Desktop"
   sodipodi:docname="FC_Sion.svg"
   inkscape:output_extension="org.inkscape.output.svg.inkscape"
   sodipodi:modified="true">
  <metadata
     id="metadata7">
    <rdf:RDF>
      <cc:Work
         rdf:about="">
        <dc:format>image/svg+xml</dc:format>
        <dc:type
           rdf:resource="http://purl.org/dc/dcmitype/StillImage" />
      </cc:Work>
    </rdf:RDF>
  </metadata>
  <defs
     id="defs5" />
  <sodipodi:namedview
     inkscape:window-height="751"
     inkscape:window-width="1280"
     inkscape:pageshadow="2"
     inkscape:pageopacity="0.0"
     guidetolerance="10.0"
     gridtolerance="0.4"
     objecttolerance="10.0"
     borderopacity="1.0"
     bordercolor="#666666"
     pagecolor="#ffffff"
     id="base"
     showguides="true"
     inkscape:guide-bbox="true"
     showgrid="true"
     inkscape:zoom="0.44179564"
     inkscape:cx="106.26033"
     inkscape:cy="375.9151"
     inkscape:window-x="-4"
     inkscape:window-y="-4"
     inkscape:current-layer="svg2" />
  <g
     id="g29378"
     transform="matrix(0.668918,0,0,0.668918,153.17713,63.537454)">
    <path
       id="path23550"
       d="M 0.40013228,-92.030424 L 0.80026455,56.41865 L 226.875,56.818782 L 226.07474,-62.420636 L 0.40013228,-92.030424 z "
       style="fill:#ffffff;fill-opacity:1;fill-rule:evenodd;stroke:none;stroke-width:1px;stroke-linecap:butt;stroke-linejoin:miter;stroke-opacity:1" />
    <path
       sodipodi:nodetypes="ccczc"
       id="path24521"
       d="M -225.6746,56.818783 L 0,57.619047 L 0,503.3664 C 0,503.3664 -118.83928,427.7414 -174.45767,312.90344 C -229.92489,198.37758 -225.6746,56.818783 -225.6746,56.818783 z "
       style="fill:#ffffff;fill-opacity:1;fill-rule:evenodd;stroke:none;stroke-width:1px;stroke-linecap:butt;stroke-linejoin:miter;stroke-opacity:1" />
    <path
       sodipodi:nodetypes="ccczc"
       id="path27430"
       d="M 226.26248,56.698913 L 0.58787745,57.499173 L 0.58787745,503.24654 C 0.58787745,503.24654 119.42716,427.62154 175.04555,312.78358 C 230.51277,198.25771 226.26248,56.698913 226.26248,56.698913 z "
       style="fill:#ff0d00;fill-opacity:1;fill-rule:evenodd;stroke:none;stroke-width:1px;stroke-linecap:butt;stroke-linejoin:miter;stroke-opacity:1" />
    <path
       id="path28401"
       d="M -0.57499144,-92.950559 L -0.97512144,55.498516 L -227.04986,55.898646 L -226.2496,-63.340771 L -0.57499144,-92.950559 z "
       style="fill:#ff0d00;fill-opacity:1;fill-rule:evenodd;stroke:none;stroke-width:1px;stroke-linecap:butt;stroke-linejoin:miter;stroke-opacity:1" />
    <path
       sodipodi:nodetypes="ccccccccc"
       id="path2179"
       d="M -226.46397,-62.768352 L 0.02144839,-92.485415 L 226.55548,-62.768352 C 226.55548,-62.768352 226.5719,52.610682 226.55548,58.900097 C 226.57353,237.03602 175.9042,326.48832 116.99488,401.00884 C 59.894759,467.58201 0.14080308,504.56587 0.14080308,504.56587 C 0.14080308,504.56587 -59.783539,469.70717 -116.97493,400.99413 C -176.05845,326.51627 -226.44969,236.99931 -226.46397,58.929266 C -226.52791,52.215447 -226.46397,-62.768352 -226.46397,-62.768352 z "
       style="fill:none;fill-rule:evenodd;stroke:#000000;stroke-width:5;stroke-linecap:butt;stroke-linejoin:miter;stroke-miterlimit:4;stroke-dasharray:none;stroke-opacity:1" />
    <path
       transform="matrix(1.8176013,0,0,1.8176013,-243.50068,-203.97443)"
       d="M 100.7253,220.20671 L 79.775733,204.89098 L 58.810981,220.17783 L 66.903332,195.52079 L 45.886214,180.30602 L 71.837127,180.38285 L 79.812587,155.69277 L 87.758783,180.39729 L 113.70501,180.35275 L 92.665111,195.54415 L 100.7253,220.20671 z "
       inkscape:randomized="0"
       inkscape:rounded="0"
       inkscape:flatsided="false"
       sodipodi:arg2="1.5717033"
       sodipodi:arg1="0.9431669"
       sodipodi:r2="13.543775"
       sodipodi:r1="35.654457"
       sodipodi:cy="191.34721"
       sodipodi:cx="79.788017"
       sodipodi:sides="5"
       id="path2183"
       style="fill:#ff0d00;fill-opacity:1;fill-rule:nonzero;stroke:#000000;stroke-width:3.00002813;stroke-linecap:butt;stroke-linejoin:miter;stroke-miterlimit:4;stroke-dasharray:none;stroke-dashoffset:5.2;stroke-opacity:1"
       sodipodi:type="star" />
    <path
       transform="matrix(1.8176013,0,0,1.8176013,-243.26477,-73.234128)"
       d="M 100.7253,220.20671 L 79.775733,204.89098 L 58.810981,220.17783 L 66.903332,195.52079 L 45.886214,180.30602 L 71.837127,180.38285 L 79.812587,155.69277 L 87.758783,180.39729 L 113.70501,180.35275 L 92.665111,195.54415 L 100.7253,220.20671 z "
       inkscape:randomized="0"
       inkscape:rounded="0"
       inkscape:flatsided="false"
       sodipodi:arg2="1.5717033"
       sodipodi:arg1="0.9431669"
       sodipodi:r2="13.543775"
       sodipodi:r1="35.654457"
       sodipodi:cy="191.34721"
       sodipodi:cx="79.788017"
       sodipodi:sides="5"
       id="path3156"
       style="fill:#ff0d00;fill-opacity:1;fill-rule:nonzero;stroke:#000000;stroke-width:3.00002813;stroke-linecap:butt;stroke-linejoin:miter;stroke-miterlimit:4;stroke-dasharray:none;stroke-dashoffset:5.2;stroke-opacity:1"
       sodipodi:type="star" />
    <path
       sodipodi:nodetypes="cc"
       id="path5096"
       d="M -226.21464,57.035363 L 226.19895,57.035363"
       style="fill:none;fill-rule:evenodd;stroke:#000000;stroke-width:5;stroke-linecap:butt;stroke-linejoin:miter;stroke-miterlimit:4;stroke-dasharray:none;stroke-opacity:1" />
    <path
       sodipodi:nodetypes="cc"
       id="path5098"
       d="M 0,-91.420351 L 0,502.40839"
       style="fill:none;fill-rule:evenodd;stroke:#000000;stroke-width:5;stroke-linecap:butt;stroke-linejoin:miter;stroke-miterlimit:4;stroke-dasharray:none;stroke-opacity:1" />
    <path
       sodipodi:nodetypes="czzzz"
       id="path7041"
       d="M 121.0036,-42.95354 C 141.83303,-42.95354 149.71414,-23.682703 149.71414,0.022189554 C 149.71414,24.010018 141.81973,43.025002 121.0036,43.024273 C 100.18759,43.023544 92.879232,22.029464 92.879232,0.022189578 C 92.879232,-21.985086 99.891243,-42.95354 121.0036,-42.95354 z "
       style="fill:#ff0d00;fill-opacity:1;fill-rule:evenodd;stroke:#000000;stroke-width:4;stroke-linecap:butt;stroke-linejoin:miter;stroke-miterlimit:4;stroke-dasharray:none;stroke-opacity:1" />
    <path
       sodipodi:nodetypes="czzzz"
       id="path7043"
       d="M 121.0036,-28.973182 C 130.53224,-28.938856 131.29089,-14.560435 131.31412,0.0090124166 C 131.33736,14.578474 130.55225,29.055975 121.0258,29.163194 C 111.64082,29.270413 111.1539,14.724196 111.23677,0.013176837 C 111.31904,-14.591528 111.7579,-29.007508 121.0036,-28.973182 z "
       style="fill:#ffffff;fill-opacity:1;fill-rule:evenodd;stroke:#000000;stroke-width:4;stroke-linecap:butt;stroke-linejoin:miter;stroke-miterlimit:4;stroke-dasharray:none;stroke-opacity:1" />
    <path
       sodipodi:nodetypes="cszszccczczccc"
       id="path7063"
       d="M 53.971395,-40.013228 C 42.667659,-42.614088 30.744479,-44.510299 22.466742,-41.03415 C 14.189006,-37.558001 9.6981808,-28.709491 9.6517188,-20.006614 C 9.6052533,-11.303072 14.14521,-1.0552775 22.767127,3.9658588 C 30.855353,8.6761903 40.755682,12.064569 40.813492,20.006613 C 40.929112,35.890702 17.864092,29.206206 14.404762,16.805555 C 14.340668,16.854099 10,16.805555 10,16.805555 C 10,16.805555 10.040466,29.075801 10.049769,38.97857 C 44.756181,52.583067 58.419312,32.83084 58.419312,16.805555 C 58.419312,8.8029095 53.771057,0.90933364 47.93986,-3.1803414 C 39.973282,-8.5241151 26.384466,-10.008046 26.40873,-22.124472 C 26.432994,-34.311632 44.148047,-31.784877 49.02834,-18.052415 C 50.230462,-18.042361 53.993585,-18.052415 53.993585,-18.052415 C 53.993585,-18.052415 54.057715,-34.520243 53.971395,-40.013228 z "
       style="fill:#ff0d00;fill-opacity:1;fill-rule:evenodd;stroke:#000000;stroke-width:4;stroke-linecap:butt;stroke-linejoin:miter;stroke-miterlimit:4;stroke-dasharray:none;stroke-opacity:1" />
    <path
       sodipodi:nodetypes="ccccccccccc"
       id="path13848"
       d="M 217.04496,-43.025507 L 217.02779,43.022909 L 199.00421,42.990056 L 173.98863,-15.019236 L 173.9901,43.007218 L 158.01131,43.007218 L 157.97698,-43.009817 L 178.99967,-42.976964 L 202.00066,10.012545 L 201.99932,-43.02698 L 217.04496,-43.025507 z "
       style="fill:#ff0d00;fill-opacity:1;fill-rule:evenodd;stroke:#000000;stroke-width:4;stroke-linecap:butt;stroke-linejoin:miter;stroke-miterlimit:10;stroke-dasharray:none;stroke-opacity:1" />
    <rect
       y="-43"
       x="66"
       height="86"
       width="17"
       id="rect14821"
       style="fill:#ff0d00;fill-opacity:1;fill-rule:nonzero;stroke:#000000;stroke-width:4;stroke-linecap:butt;stroke-linejoin:miter;stroke-miterlimit:5;stroke-dasharray:none;stroke-dashoffset:5.2;stroke-opacity:1" />
    <path
       sodipodi:nodetypes="ccczzzccczzzc"
       id="path18699"
       d="M -46.118608,16.775546 L -39.964745,16.775546 L -39.964745,36.01521 C -39.964745,36.01521 -50.119573,42.89699 -65.004602,42.947148 C -80.172567,42.997306 -99.87737,34.447488 -100,0 C -100.12263,-34.164552 -79.717063,-42.944578 -65,-42.924002 C -50.353671,-42.903426 -40,-35.56766 -40,-35.56766 L -40,-16.327995 L -46.189343,-16.398729 C -46.189343,-16.398729 -52.078009,-27.554134 -63.448453,-27.503977 C -74.960272,-27.453196 -80.778075,-13.863876 -80.848809,0 C -80.919543,13.863876 -74.748163,27.718749 -63.377719,27.668591 C -51.93654,27.618433 -46.118608,16.775546 -46.118608,16.775546 z "
       style="fill:#ffffff;fill-opacity:1;fill-rule:evenodd;stroke:#000000;stroke-width:4;stroke-linecap:butt;stroke-linejoin:miter;stroke-miterlimit:4;stroke-dasharray:none;stroke-opacity:1" />
    <path
       sodipodi:nodetypes="ccccccccccc"
       id="path19670"
       d="M -131.01665,-42.992654 L -130.99948,-28.011251 L -162.98844,-28.028414 L -163.0056,-7.9899573 L -135.9923,-7.9899573 L -135.9923,6.9728101 L -162.98844,7.0056637 L -163.0056,42.957202 L -178.99861,43.024381 L -178.96576,-43.025507 L -131.01665,-42.992654 z "
       style="fill:#ffffff;fill-opacity:1;fill-rule:evenodd;stroke:#000000;stroke-width:4;stroke-linecap:butt;stroke-linejoin:miter;stroke-miterlimit:4;stroke-dasharray:none;stroke-opacity:1" />
    <path
       sodipodi:nodetypes="ccczcczcczcczcccczcczcczcczcc"
       id="path20641"
       d="M 132.41416,130 L 155.61493,130 L 154.98041,102.33949 C 154.98041,102.33949 155.63504,97.491083 151.32234,92.35385 C 146.91035,87.098336 140.13042,87.792544 140.13042,87.792544 L 70.036775,87.792544 C 70.036775,87.792544 38.974431,88.550061 31.604765,120.75158 C 24.278614,152.76296 46.000331,176.17163 46.000331,176.17163 L 115.33501,249.59987 C 115.33501,249.59987 135.53973,268.71381 126.02382,290.2376 C 116.47549,311.83472 86.212685,312.00946 86.212685,312.00946 L 54.323759,311.87805 C 54.323759,311.87805 52.281337,311.87805 51.200397,310.7463 C 50.119457,309.61456 50,307.35107 50,307.35107 L 50,291.50664 L 25.995809,291.50664 L 26.030135,325 C 26.030135,325 27.370704,329.58372 30.200066,332.08372 C 33.029428,334.58372 37.347584,335 37.347584,335 L 100.32517,334.84443 C 100.32517,334.84443 135.984,330.66598 150.39066,298.55994 C 164.689,266.69529 137.99835,237.13677 137.99835,237.13677 L 65.578447,159.99572 C 65.578447,159.99572 55.998525,152.1724 56.152791,131.94238 C 56.307039,111.71488 80,109.2957 80,109.2957 L 129.5848,108.72983 C 129.5848,108.72983 131.10662,109.2098 131.81396,110.20007 C 132.5213,111.19035 132.41416,112.69093 132.41416,112.69093 L 132.41416,130 z "
       style="fill:#ffffff;fill-opacity:1;fill-rule:evenodd;stroke:#000000;stroke-width:4;stroke-linecap:butt;stroke-linejoin:miter;stroke-miterlimit:4;stroke-dasharray:none;stroke-opacity:1" />
  </g>
</svg>
