<?xml version="1.0" standalone="no"?>
<!DOCTYPE svg PUBLIC "-//W3C//DTD SVG 20010904//EN"
 "http://www.w3.org/TR/2001/REC-SVG-20010904/DTD/svg10.dtd">
<svg version="1.0" xmlns="http://www.w3.org/2000/svg"
 width="512.000000pt" height="512.000000pt" viewBox="0 0 512.000000 512.000000"
 preserveAspectRatio="xMidYMid meet">
<metadata>
Created by potrace 1.16, written by Peter Selinger 2001-2019
</metadata>
<g transform="translate(0.000000,512.000000) scale(0.100000,-0.100000)"
fill="#000000" stroke="none">
<path d="M3605 5099 c-52 -27 -90 -64 -110 -105 l-15 -33 -273 -3 -272 -3 -66
-31 c-74 -35 -137 -87 -179 -148 -15 -23 -61 -131 -103 -241 -42 -110 -79
-208 -82 -217 -6 -16 -24 -18 -162 -18 l-155 0 -43 38 c-57 50 -128 88 -200
107 -87 22 -843 22 -930 0 -128 -34 -244 -126 -322 -255 -45 -75 -48 -78 -97
-89 -28 -6 -87 -29 -131 -51 -207 -101 -351 -266 -428 -489 -25 -73 -31 -106
-35 -212 -5 -146 7 -231 48 -336 22 -57 25 -75 15 -83 -7 -6 -25 -38 -40 -71
-24 -54 -27 -70 -23 -147 2 -65 9 -99 26 -134 47 -95 150 -170 254 -184 l46
-6 12 -67 c43 -260 206 -497 429 -626 l79 -47 -97 -49 c-416 -212 -686 -661
-669 -1111 4 -95 8 -113 37 -172 42 -85 113 -156 198 -198 l68 -33 1088 -3
1087 -2 0 273 c0 303 -9 388 -60 539 -101 302 -325 562 -606 705 -52 27 -94
51 -94 55 0 4 9 9 19 13 29 9 139 82 193 128 146 126 271 355 293 538 l7 57
48 6 c64 9 162 59 201 104 56 64 83 136 84 224 l0 77 570 3 c564 3 570 3 611
25 45 24 108 89 119 122 6 20 12 21 204 21 l197 0 328 -205 c280 -175 333
-205 367 -205 26 0 44 7 59 22 20 22 20 30 20 964 0 518 -3 950 -6 959 -10 25
-62 48 -92 40 -15 -4 -174 -98 -353 -211 l-327 -204 -195 0 -195 0 -12 29
c-16 38 -73 95 -119 118 -33 17 -78 18 -584 21 -426 2 -548 5 -544 15 138 374
154 404 244 448 45 22 61 23 294 27 l246 4 13 -31 c17 -43 100 -115 148 -129
49 -15 432 -16 484 -2 56 16 119 69 147 125 21 40 26 64 26 120 -1 80 -22 129
-77 182 -61 59 -83 63 -340 63 -218 0 -236 -1 -273 -21z m480 -155 c24 -10 46
-60 39 -89 -3 -14 -18 -34 -31 -45 -24 -18 -41 -20 -215 -20 -187 0 -189 0
-213 25 -32 31 -33 80 -3 112 21 22 26 23 214 23 106 0 200 -3 209 -6z m865
-1395 c0 -597 -3 -749 -12 -743 -7 4 -118 72 -245 152 l-233 144 0 448 0 449
238 149 c130 83 240 151 245 151 4 1 7 -337 7 -750z m-3037 721 c106 -33 210
-144 232 -248 5 -27 17 -39 63 -64 121 -68 223 -204 252 -338 19 -88 9 -471
-14 -533 -13 -35 -23 -47 -33 -43 -8 4 -32 9 -54 12 l-39 7 0 162 0 163 -357
5 c-373 5 -425 10 -600 58 -136 37 -299 109 -438 193 l-59 35 -41 -102 c-72
-177 -104 -224 -188 -280 -74 -48 -137 -67 -229 -67 l-78 0 0 -83 0 -83 -54
-10 -54 -10 -24 76 c-35 113 -32 275 6 385 71 205 217 350 425 423 72 25 89
26 304 30 l227 4 0 84 0 83 -147 3 -147 3 33 38 c40 45 108 87 170 103 32 9
155 13 412 13 341 1 371 0 432 -19z m1859 -168 l23 -23 2 -517 c2 -403 0 -522
-10 -542 -24 -47 -44 -49 -639 -49 -307 -1 -558 3 -558 7 0 5 10 35 22 68 20
54 22 82 26 311 3 233 2 258 -18 330 -11 42 -38 109 -58 148 -41 78 -150 199
-218 242 -24 15 -46 34 -49 41 -4 10 138 12 725 10 l729 -3 23 -23z m518 -222
l0 -80 -165 0 -165 0 0 80 0 80 165 0 165 0 0 -80z m0 -330 l0 -80 -165 0
-165 0 0 80 0 80 165 0 165 0 0 -80z m-3163 -199 c55 -22 142 -51 194 -65 185
-50 258 -58 552 -63 l279 -5 -5 -427 c-5 -464 -7 -485 -66 -615 -56 -124 -147
-234 -251 -305 -99 -68 -97 -68 -111 -19 -17 65 -46 116 -96 169 l-46 49 47
50 c26 28 58 75 72 104 25 55 52 212 41 240 -6 14 -55 16 -417 16 l-410 0 0
-75 c0 -120 46 -231 128 -308 l30 -29 -45 -44 c-43 -43 -103 -151 -103 -186 0
-30 -15 -28 -80 14 -138 87 -250 230 -307 393 l-28 80 -3 367 -3 367 28 6
c166 35 318 152 394 302 l32 62 37 -19 c21 -11 82 -37 137 -59z m3163 -131 l0
-80 -165 0 -165 0 0 80 0 80 165 0 165 0 0 -80z m-3960 -496 l0 -166 -32 6
c-128 25 -173 193 -76 283 25 24 63 41 91 42 15 1 17 -13 17 -165z m2037 155
c43 -16 92 -69 104 -113 20 -76 -28 -167 -104 -195 -58 -22 -57 -25 -57 154 0
179 -1 176 57 154z m-838 -609 c-54 -95 -172 -141 -281 -108 -45 13 -122 77
-144 119 l-15 29 231 0 231 0 -22 -40z m-129 -300 c77 -21 142 -92 161 -178
15 -65 -4 -129 -67 -227 l-49 -75 -122 0 -122 0 -39 58 c-66 97 -82 136 -82
199 0 35 8 74 19 99 21 46 83 102 132 120 42 15 122 17 169 4z m-393 -492 c16
-25 16 -27 -20 -61 -70 -66 -77 -94 -77 -343 l0 -221 29 -57 28 -57 -111 3
-111 3 -3 163 -2 162 -80 0 -80 0 0 -187 0 -188 -72 -72 -72 -72 58 -57 57
-57 72 71 72 72 148 0 147 0 0 -165 0 -165 -272 0 c-266 0 -274 1 -324 24 -62
29 -117 92 -134 152 -18 63 -7 215 24 336 64 250 227 481 441 623 85 57 230
127 253 122 7 -1 21 -14 29 -29z m770 -13 c213 -98 396 -277 502 -491 85 -172
111 -297 111 -545 l0 -179 -160 0 -160 0 0 410 0 410 -85 0 -85 0 0 -410 0
-410 -149 0 -149 0 25 61 c22 54 24 74 21 158 -3 80 -8 106 -31 156 -20 42
-24 61 -16 64 31 10 99 87 116 129 15 40 18 79 18 262 0 205 -1 217 -23 262
-13 26 -39 61 -58 78 l-35 30 18 31 c21 36 31 34 140 -16z m-253 -156 c42 -19
48 -51 44 -254 -4 -244 17 -225 -247 -225 -183 0 -199 1 -218 20 -29 27 -35
79 -31 264 l3 158 28 24 c28 23 32 24 212 24 116 0 193 -4 209 -11z m-156
-664 c81 -35 115 -90 116 -190 0 -77 -14 -113 -61 -157 -41 -39 -74 -48 -174
-48 l-89 0 0 180 0 181 53 24 c60 29 103 31 155 10z"/>
<path d="M2810 3555 l0 -415 415 0 415 0 -2 413 -3 412 -412 3 -413 2 0 -415z
m658 -2 l-3 -248 -245 0 -245 0 -3 235 c-1 129 0 240 2 247 4 10 62 13 251 13
l245 0 -2 -247z"/>
<path d="M855 3051 c-98 -25 -176 -109 -192 -207 l-6 -34 84 0 84 0 15 33 c28
61 114 59 140 -4 12 -29 13 -29 96 -29 46 0 84 4 84 8 0 36 -37 120 -68 154
-58 64 -161 98 -237 79z"/>
<path d="M1667 3046 c-26 -7 -64 -26 -85 -43 -45 -36 -91 -117 -92 -160 l0
-33 78 0 c76 1 77 1 97 33 39 62 112 59 143 -6 13 -26 16 -27 93 -27 78 0 79
0 79 25 0 14 -7 42 -15 62 -50 120 -176 183 -298 149z"/>
<path d="M1240 1075 l0 -85 80 0 80 0 0 85 0 85 -80 0 -80 0 0 -85z"/>
<path d="M3220 2560 l0 -90 580 0 580 0 0 90 0 90 -580 0 -580 0 0 -90z"/>
<path d="M3220 2230 l0 -90 85 0 85 0 0 90 0 90 -85 0 -85 0 0 -90z"/>
<path d="M3550 2230 l0 -90 85 0 85 0 0 90 0 90 -85 0 -85 0 0 -90z"/>
<path d="M3880 2230 l0 -90 85 0 85 0 0 90 0 90 -85 0 -85 0 0 -90z"/>
<path d="M4210 2230 l0 -90 85 0 85 0 0 90 0 90 -85 0 -85 0 0 -90z"/>
<path d="M3715 1984 c-105 -14 -179 -30 -240 -51 -341 -122 -580 -397 -656
-758 -7 -33 -13 -120 -12 -195 1 -110 5 -153 26 -231 95 -362 358 -624 730
-727 48 -13 103 -17 237 -17 153 0 185 3 254 23 350 101 600 346 702 687 32
110 44 319 24 443 -29 182 -121 367 -250 505 -140 150 -297 244 -481 291 -91
23 -267 39 -334 30z m284 -195 c277 -64 502 -281 593 -569 20 -65 23 -96 23
-225 0 -175 -12 -232 -80 -370 -99 -204 -279 -356 -505 -427 -65 -20 -95 -23
-230 -23 -135 0 -165 3 -230 23 -293 93 -506 317 -577 609 -23 98 -21 285 5
384 43 161 118 285 241 401 205 194 474 264 760 197z"/>
<path d="M3350 1477 c-49 -25 -50 -33 -50 -485 0 -352 2 -428 15 -451 16 -32
33 -41 76 -41 32 0 839 398 877 433 15 14 22 32 22 57 0 25 -7 43 -22 57 -25
23 -861 443 -881 443 -7 0 -23 -6 -37 -13z m395 -349 c146 -73 265 -135 265
-138 0 -5 -525 -270 -535 -270 -3 0 -5 122 -5 270 0 149 2 270 5 270 3 0 124
-60 270 -132z"/>
</g>
</svg>
