<?xml version="1.0" standalone="no"?>
<!DOCTYPE svg PUBLIC "-//W3C//DTD SVG 20010904//EN"
 "http://www.w3.org/TR/2001/REC-SVG-20010904/DTD/svg10.dtd">
<svg version="1.0" xmlns="http://www.w3.org/2000/svg"
 width="512.000000pt" height="512.000000pt" viewBox="0 0 512.000000 512.000000"
 preserveAspectRatio="xMidYMid meet">
<metadata>
Created by potrace 1.16, written by Peter Selinger 2001-2019
</metadata>
<g transform="translate(0.000000,512.000000) scale(0.100000,-0.100000)"
fill="#000000" stroke="none">
<path d="M2330 4944 c-319 -38 -555 -106 -825 -239 -702 -343 -1180 -991
-1312 -1780 -26 -158 -26 -573 0 -730 102 -604 410 -1137 872 -1505 251 -200
570 -360 885 -444 217 -58 324 -70 605 -71 289 0 374 10 610 70 413 106 818
342 1115 651 343 356 562 797 647 1299 26 157 26 572 0 730 -130 773 -595
1417 -1275 1764 -227 115 -440 186 -697 232 -95 17 -169 22 -355 24 -129 2
-251 1 -270 -1z m413 -660 c222 -17 513 -115 722 -244 141 -86 325 -240 325
-271 0 -32 -22 -21 -102 50 -317 280 -713 431 -1128 431 -410 0 -813 -152
-1120 -424 -88 -79 -110 -90 -110 -56 0 12 34 48 91 97 288 248 640 396 1008
423 103 7 160 6 314 -6z m1422 -1724 l0 -975 -1605 0 -1605 0 -3 965 c-1 531
0 971 3 978 3 10 330 12 1607 10 l1603 -3 0 -975z m-2745 -1248 c187 -167 369
-274 596 -351 585 -197 1207 -70 1673 341 79 70 101 81 101 49 0 -31 -184
-185 -325 -271 -424 -261 -957 -324 -1440 -170 -115 37 -269 107 -370 170
-141 86 -325 240 -325 271 0 31 22 22 90 -39z"/>
<path d="M995 3478 c-3 -7 -4 -425 -3 -928 l3 -915 1565 0 1565 0 0 925 0 925
-1563 3 c-1245 2 -1564 0 -1567 -10z m2233 -282 c15 -8 38 -26 52 -41 24 -26
25 -33 30 -191 l5 -165 210 176 c116 97 221 181 234 186 29 12 59 3 89 -24
l22 -20 0 -557 0 -557 -22 -20 c-30 -27 -60 -36 -89 -24 -13 5 -118 89 -234
186 l-210 178 -5 -160 c-6 -175 -12 -196 -73 -233 -31 -19 -58 -20 -955 -20
-1001 0 -948 -3 -1002 55 l-25 27 -3 562 -2 563 21 27 c12 16 36 37 53 47 30
18 68 19 954 19 773 0 927 -2 950 -14z"/>
<path d="M1350 3091 c-6 -13 -10 -199 -10 -535 0 -454 2 -516 16 -530 14 -14
111 -16 924 -16 l909 0 15 22 c13 19 16 58 16 225 0 195 1 203 21 213 11 7 27
9 35 6 8 -3 122 -96 253 -206 132 -110 242 -200 245 -200 3 0 6 221 6 490 0
270 -3 490 -6 490 -4 0 -114 -91 -246 -201 -231 -194 -270 -220 -296 -194 -4
3 -9 103 -12 221 -4 176 -8 216 -20 224 -9 6 -371 10 -927 10 -892 0 -913 0
-923 -19z m1005 -309 c242 -163 255 -175 255 -220 0 -44 -6 -49 -265 -223
-184 -124 -213 -140 -240 -135 -65 13 -65 15 -65 356 0 170 3 316 6 325 9 22
61 44 88 37 12 -3 111 -66 221 -140z"/>
<path d="M2140 2565 c0 -186 3 -235 13 -229 6 4 85 57 174 117 l162 110 -37
27 c-20 14 -99 68 -174 118 l-138 92 0 -235z"/>
</g>
</svg>
